<svg width="55" height="45" viewBox="0 0 55 45" fill="none" xmlns="http://www.w3.org/2000/svg">
<g clip-path="url(#clip0_100_695)">
<path d="M42.9886 3.11415C45.3667 6.90231 43.0547 14.2218 41.139 19.2299C39.2233 24.2379 37.704 26.8704 37.1755 32.1995C36.6471 37.4644 37.0434 45.4902 35.2599 44.9765C33.4763 44.5271 29.5129 35.5382 23.7658 32.8416C18.0188 30.1449 10.4883 33.6762 5.79816 32.3921C1.10807 31.1722 -0.807601 25.0726 1.43836 20.9634C3.61826 16.79 9.95979 14.5428 14.8481 11.2041C19.6703 7.8654 23.1053 3.49938 28.3238 1.38058C33.5424 -0.73822 40.6105 -0.609807 42.9886 3.11415Z" fill="url(#paint0_linear_100_695)"/>
<path d="M51.5539 24.6172V19.9102C51.5539 19.5716 51.4986 19.2819 51.3879 19.041C51.2772 18.7936 51.1047 18.6016 50.8703 18.4648C50.6425 18.3281 50.3462 18.2598 49.9816 18.2598C49.6691 18.2598 49.399 18.3151 49.1711 18.4258C48.9432 18.5299 48.7675 18.6829 48.6438 18.8848C48.5201 19.0801 48.4582 19.3112 48.4582 19.5781H45.6457C45.6457 19.1289 45.7499 18.7025 45.9582 18.2988C46.1665 17.8952 46.4693 17.5404 46.8664 17.2344C47.2635 16.9219 47.7355 16.6777 48.2824 16.502C48.8358 16.3262 49.4543 16.2383 50.1379 16.2383C50.9582 16.2383 51.6874 16.375 52.3254 16.6484C52.9634 16.9219 53.4647 17.332 53.8293 17.8789C54.2004 18.4258 54.3859 19.1094 54.3859 19.9297V24.4512C54.3859 25.0306 54.4217 25.5059 54.4934 25.877C54.565 26.2415 54.6691 26.5605 54.8059 26.834V27H51.9641C51.8273 26.7135 51.7232 26.3555 51.6516 25.9258C51.5865 25.4896 51.5539 25.0534 51.5539 24.6172ZM51.925 20.5645L51.9445 22.1562H50.3723C50.0012 22.1562 49.6789 22.1986 49.4055 22.2832C49.132 22.3678 48.9074 22.4883 48.7316 22.6445C48.5559 22.7943 48.4257 22.9701 48.341 23.1719C48.2629 23.3737 48.2238 23.5951 48.2238 23.8359C48.2238 24.0768 48.2792 24.2949 48.3898 24.4902C48.5005 24.679 48.66 24.8288 48.8684 24.9395C49.0767 25.0436 49.3208 25.0957 49.6008 25.0957C50.024 25.0957 50.3918 25.0111 50.7043 24.8418C51.0168 24.6725 51.2577 24.4642 51.427 24.2168C51.6027 23.9694 51.6939 23.735 51.7004 23.5137L52.4426 24.7051C52.3384 24.972 52.1952 25.2487 52.0129 25.5352C51.8371 25.8216 51.6125 26.0918 51.3391 26.3457C51.0656 26.5931 50.7369 26.7982 50.3527 26.9609C49.9686 27.1172 49.5129 27.1953 48.9855 27.1953C48.315 27.1953 47.7063 27.0618 47.1594 26.7949C46.619 26.5215 46.1893 26.1471 45.8703 25.6719C45.5578 25.1901 45.4016 24.6432 45.4016 24.0312C45.4016 23.4779 45.5057 22.9863 45.7141 22.5566C45.9224 22.127 46.2284 21.7656 46.632 21.4727C47.0422 21.1732 47.5533 20.9486 48.1652 20.7988C48.7772 20.6426 49.4869 20.5645 50.2941 20.5645H51.925Z" fill="black"/>
<path d="M31.2891 18.6211V27H28.4668V16.4336H31.1133L31.2891 18.6211ZM30.8984 21.3457H30.1172C30.1172 20.61 30.2051 19.9329 30.3809 19.3145C30.5632 18.6895 30.8268 18.1491 31.1719 17.6934C31.5234 17.2311 31.9564 16.873 32.4707 16.6191C32.985 16.3652 33.5807 16.2383 34.2578 16.2383C34.7266 16.2383 35.1563 16.3099 35.5469 16.4531C35.9375 16.5898 36.2728 16.8079 36.5527 17.1074C36.8392 17.4004 37.0605 17.7845 37.2168 18.2598C37.373 18.7285 37.4512 19.2917 37.4512 19.9492V27H34.6387V20.2617C34.6387 19.7799 34.5736 19.4089 34.4434 19.1484C34.3132 18.888 34.1276 18.7057 33.8867 18.6016C33.6523 18.4974 33.3691 18.4453 33.0371 18.4453C32.6725 18.4453 32.3535 18.5202 32.0801 18.6699C31.8132 18.8197 31.5918 19.028 31.416 19.2949C31.2402 19.5553 31.11 19.8613 31.0254 20.2129C30.9408 20.5645 30.8984 20.9421 30.8984 21.3457ZM37.1875 21.0234L36.1816 21.1504C36.1816 20.4603 36.2663 19.819 36.4355 19.2266C36.6113 18.6341 36.8685 18.1133 37.207 17.6641C37.5521 17.2148 37.9785 16.8665 38.4863 16.6191C38.9941 16.3652 39.5801 16.2383 40.2441 16.2383C40.752 16.2383 41.2142 16.3132 41.6309 16.4629C42.0475 16.6061 42.4023 16.8372 42.6953 17.1562C42.9948 17.4688 43.2227 17.8789 43.3789 18.3867C43.5417 18.8945 43.623 19.5163 43.623 20.252V27H40.8008V20.252C40.8008 19.7637 40.7357 19.3926 40.6055 19.1387C40.4818 18.8783 40.2995 18.6992 40.0586 18.6016C39.8242 18.4974 39.5443 18.4453 39.2188 18.4453C38.8802 18.4453 38.584 18.5137 38.3301 18.6504C38.0762 18.7806 37.8646 18.9629 37.6953 19.1973C37.526 19.4316 37.3991 19.7051 37.3145 20.0176C37.2298 20.3236 37.1875 20.6589 37.1875 21.0234Z" fill="black"/>
<path d="M26.1023 16.4336V27H23.2801V16.4336H26.1023ZM23.1043 13.6797C23.1043 13.2695 23.2475 12.931 23.534 12.6641C23.8204 12.3971 24.2046 12.2637 24.6863 12.2637C25.1616 12.2637 25.5424 12.3971 25.8289 12.6641C26.1219 12.931 26.2684 13.2695 26.2684 13.6797C26.2684 14.0898 26.1219 14.4284 25.8289 14.6953C25.5424 14.9622 25.1616 15.0957 24.6863 15.0957C24.2046 15.0957 23.8204 14.9622 23.534 14.6953C23.2475 14.4284 23.1043 14.0898 23.1043 13.6797Z" fill="black"/>
</g>
<defs>
<linearGradient id="paint0_linear_100_695" x1="0.5" y1="45" x2="45.4742" y2="1.52499" gradientUnits="userSpaceOnUse">
<stop stop-color="#2196F3"/>
<stop offset="1" stop-color="#64B5CC"/>
</linearGradient>
<clipPath id="clip0_100_695">
<rect width="55" height="45" fill="white"/>
</clipPath>
</defs>
</svg>
