<svg width="70" height="36" viewBox="0 0 70 36" fill="none" xmlns="http://www.w3.org/2000/svg">
<path d="M11.9056 35.447V14.1788H17.1251V16.0717C17.8524 15.306 18.7223 14.7034 19.7348 14.2639C20.7473 13.8101 21.8382 13.5833 23.0076 13.5833C24.4908 13.5833 25.8527 13.9307 27.0933 14.6254C28.3483 15.3202 29.3466 16.2489 30.0881 17.4116C30.8439 16.2489 31.8422 15.3202 33.0829 14.6254C34.3236 13.9307 35.6855 13.5833 37.1686 13.5833C38.7373 13.5833 40.1562 13.9661 41.4254 14.7318C42.7089 15.4832 43.7286 16.497 44.4844 17.7731C45.2545 19.035 45.6395 20.4458 45.6395 22.0055V35.447H40.4201V23.3879C40.4201 22.5655 40.2133 21.8141 39.7997 21.1335C39.4004 20.4387 38.8585 19.8858 38.174 19.4746C37.5037 19.0492 36.7479 18.8365 35.9065 18.8365C35.0651 18.8365 34.3022 19.0421 33.6177 19.4533C32.9474 19.8503 32.4055 20.3891 31.9919 21.0697C31.5784 21.7503 31.3716 22.523 31.3716 23.3879V35.447H26.1521V23.3879C26.1521 22.523 25.9525 21.7503 25.5532 21.0697C25.1539 20.3891 24.612 19.8503 23.9275 19.4533C23.2429 19.0421 22.48 18.8365 21.6386 18.8365C20.8115 18.8365 20.0556 19.0492 19.3711 19.4746C18.6866 19.8858 18.1376 20.4387 17.724 21.1335C17.3247 21.8141 17.1251 22.5655 17.1251 23.3879V35.447H11.9056Z" fill="white"/>
<path d="M64.7806 14.1788H70.0001V35.447H64.7806L64.5453 32.8097C63.9606 33.7597 63.1834 34.5325 62.2137 35.128C61.2582 35.7093 60.1245 36 58.8125 36C57.2295 36 55.7464 35.7022 54.3631 35.1067C52.9798 34.5112 51.7605 33.6888 50.7052 32.6396C49.6642 31.5904 48.8442 30.3781 48.2452 29.0027C47.6605 27.6274 47.3682 26.1528 47.3682 24.5789C47.3682 23.0618 47.6463 21.6368 48.2024 20.304C48.7729 18.9712 49.5644 17.8015 50.5769 16.7948C51.5894 15.7881 52.7588 15.0012 54.085 14.434C55.4113 13.8669 56.8374 13.5833 58.3633 13.5833C59.7751 13.5833 61.0372 13.8952 62.1495 14.5191C63.2761 15.1429 64.2316 15.937 65.0159 16.9011L64.7806 14.1788ZM58.6841 31.0019C59.7965 31.0019 60.7805 30.7255 61.6361 30.1725C62.4918 29.6195 63.162 28.8751 63.6469 27.9393C64.1317 26.9893 64.3742 25.9472 64.3742 24.8129C64.3742 23.6644 64.1317 22.6223 63.6469 21.6865C63.162 20.7365 62.4846 19.985 61.6147 19.432C60.7591 18.8791 59.7822 18.6026 58.6841 18.6026C57.586 18.6026 56.5807 18.8861 55.668 19.4533C54.7695 20.0063 54.0494 20.7507 53.5075 21.6865C52.9798 22.6223 52.716 23.6644 52.716 24.8129C52.716 25.9614 52.9869 27.0035 53.5289 27.9393C54.0708 28.8751 54.7909 29.6195 55.6894 30.1725C56.6021 30.7255 57.6003 31.0019 58.6841 31.0019Z" fill="white"/>
<path d="M2.56701 14.1788H7.78646V35.447H2.56701V14.1788Z" fill="white"/>
<g clip-path="url(#clip0_136_1250)">
<path d="M9.71585 4.43086C9.91937 5.42395 9.77432 6.4564 9.30489 7.35603C8.83546 8.25566 8.07001 8.9681 7.13621 9.37453C6.2024 9.78096 5.15668 9.85681 4.17343 9.58945C3.19018 9.32208 2.32884 8.72765 1.73304 7.90529C1.13725 7.08293 0.843013 6.08235 0.899406 5.0704C0.9558 4.05846 1.35941 3.09631 2.04294 2.34443C2.72646 1.59255 3.64858 1.09637 4.65552 0.938639C5.66246 0.780909 6.69335 0.971164 7.57628 1.47768" stroke="white" stroke-width="2" stroke-linecap="round" stroke-linejoin="round"/>
<path d="M4.01074 4.87395L5.34769 6.20322L9.80419 1.77234" stroke="white" stroke-width="2" stroke-linecap="round" stroke-linejoin="round"/>
</g>
<defs>
<clipPath id="clip0_136_1250">
<rect width="10.6956" height="10.6341" fill="white"/>
</clipPath>
</defs>
</svg>
