<svg width="307" height="226" viewBox="0 0 307 226" fill="none" xmlns="http://www.w3.org/2000/svg">
<g clip-path="url(#clip0_134_471)">
<path d="M270.335 53.5997C227.088 79.9494 199.976 118.629 188.998 169.64C178.02 220.65 150.741 237.034 107.162 218.792C63.5832 200.55 28.4871 178.761 1.87386 153.425C-24.7393 128.088 -27.068 98.5294 -5.1121 64.7477C16.8438 30.966 27.9881 5.46081 28.3207 -11.7679C28.6534 -28.9965 32.3127 -54.5017 39.2987 -88.2834C46.2846 -122.065 67.2425 -142.503 102.172 -149.597C137.102 -156.691 168.04 -148.077 194.986 -123.754C221.932 -99.4313 252.038 -70.3791 285.304 -36.5974C318.571 -2.81571 313.581 27.25 270.335 53.5997Z" fill="url(#paint0_linear_134_471)"/>
<path d="M76.4095 104.048V67.4191H85.3571V70.679C86.6039 69.3604 88.0952 68.3226 89.8309 67.5656C91.5667 66.7842 93.4369 66.3935 95.4415 66.3935C97.984 66.3935 100.319 66.9917 102.446 68.1883C104.597 69.3848 106.308 70.9843 107.58 72.9866C108.875 70.9843 110.586 69.3848 112.713 68.1883C114.84 66.9917 117.175 66.3935 119.717 66.3935C122.407 66.3935 124.839 67.0528 127.015 68.3714C129.215 69.6656 130.963 71.4116 132.259 73.6093C133.579 75.7826 134.239 78.2123 134.239 80.8984V104.048H125.291V83.2792C125.291 81.8629 124.937 80.5687 124.228 79.3966C123.543 78.2001 122.614 77.2477 121.441 76.5396C120.292 75.807 118.996 75.4407 117.554 75.4407C116.112 75.4407 114.804 75.7948 113.63 76.503C112.481 77.1867 111.552 78.1146 110.843 79.2867C110.134 80.4588 109.78 81.7897 109.78 83.2792V104.048H100.832V83.2792C100.832 81.7897 100.49 80.4588 99.8053 79.2867C99.1208 78.1146 98.1918 77.1867 97.0184 76.503C95.8449 75.7948 94.537 75.4407 93.0946 75.4407C91.6767 75.4407 90.381 75.807 89.2075 76.5396C88.0341 77.2477 87.0929 78.2001 86.3839 79.3966C85.6994 80.5687 85.3571 81.8629 85.3571 83.2792V104.048H76.4095Z" fill="white"/>
<path d="M167.052 67.4191H176V104.048H167.052L166.649 99.5057C165.647 101.142 164.314 102.473 162.652 103.498C161.014 104.499 159.07 105 156.821 105C154.108 105 151.565 104.487 149.194 103.462C146.822 102.436 144.732 101.02 142.923 99.2127C141.138 97.4057 139.733 95.3178 138.706 92.9492C137.704 90.5805 137.202 88.041 137.202 85.3304C137.202 82.7176 137.679 80.2635 138.633 77.9681C139.611 75.6727 140.967 73.6581 142.703 71.9244C144.439 70.1906 146.443 68.8354 148.717 67.8586C150.991 66.8819 153.435 66.3935 156.051 66.3935C158.471 66.3935 160.635 66.9307 162.542 68.0051C164.473 69.0796 166.111 70.447 167.456 72.1075L167.052 67.4191ZM156.601 96.3923C158.508 96.3923 160.195 95.9161 161.662 94.9638C163.129 94.0114 164.278 92.7294 165.109 91.1178C165.94 89.4817 166.356 87.6869 166.356 85.7334C166.356 83.7554 165.94 81.9606 165.109 80.349C164.278 78.7129 163.116 77.4187 161.625 76.4663C160.158 75.514 158.484 75.0378 156.601 75.0378C154.719 75.0378 152.995 75.5262 151.431 76.503C149.891 77.4553 148.656 78.7373 147.727 80.349C146.822 81.9606 146.37 83.7554 146.37 85.7334C146.37 87.7113 146.835 89.5061 147.764 91.1178C148.693 92.7294 149.927 94.0114 151.467 94.9638C153.032 95.9161 154.743 96.3923 156.601 96.3923Z" fill="white"/>
<path d="M60.4005 67.4191H69.3481V104.048H60.4005V67.4191Z" fill="white"/>
<path d="M72.6553 50.631C73.0042 52.3413 72.7556 54.1194 71.9508 55.6688C71.1461 57.2181 69.8339 58.4451 68.2331 59.1451C66.6323 59.845 64.8396 59.9757 63.154 59.5152C61.4685 59.0547 59.9919 58.031 58.9705 56.6147C57.9492 55.1984 57.4448 53.4752 57.5414 51.7324C57.6381 49.9896 58.33 48.3326 59.5018 47.0377C60.6735 45.7428 62.2543 44.8882 63.9805 44.6166C65.7067 44.3449 67.4739 44.6726 68.9875 45.5449" stroke="white" stroke-width="2" stroke-linecap="round" stroke-linejoin="round"/>
<path d="M62.8757 51.394L65.1676 53.6833L72.8074 46.0524" stroke="white" stroke-width="2" stroke-linecap="round" stroke-linejoin="round"/>
</g>
<defs>
<linearGradient id="paint0_linear_134_471" x1="143.5" y1="-152" x2="143.5" y2="226" gradientUnits="userSpaceOnUse">
<stop stop-color="white"/>
<stop offset="1" stop-color="#000DFF"/>
</linearGradient>
<clipPath id="clip0_134_471">
<rect width="307" height="226" fill="white"/>
</clipPath>
</defs>
</svg>
